<?xml version="1.0" encoding="UTF-8"?>
<svg version="1.1" xmlns="http://www.w3.org/2000/svg" width="28" height="28">
<path d="M0 0 C9.24 0 18.48 0 28 0 C28 9.24 28 18.48 28 28 C18.76 28 9.52 28 0 28 C0 18.76 0 9.52 0 0 Z " fill="#063E94" transform="translate(0,0)"/>
<path d="M0 0 C6.0546875 -0.1953125 6.0546875 -0.1953125 8 0 C10 2 10 2 10.265625 4.53125 C10.26046875 5.5109375 10.2553125 6.490625 10.25 7.5 C10.25515625 8.4796875 10.2603125 9.459375 10.265625 10.46875 C10 13 10 13 8 15 C5.31160615 15.26991906 2.70858064 15.08737357 0 15 C0 10.05 0 5.1 0 0 Z " fill="#B0C1DC" transform="translate(7,6)"/>
<path d="M0 0 C0.33 0 0.66 0 1 0 C1 4.62 1 9.24 1 14 C6.445 13.505 6.445 13.505 12 13 C12 11.68 12 10.36 12 9 C13.32 9.33 14.64 9.66 16 10 C15.01 10.495 15.01 10.495 14 11 C14 11.66 14 12.32 14 13 C15.32 13.66 16.64 14.32 18 15 C18 15.66 18 16.32 18 17 C12.06 17 6.12 17 0 17 C0 11.39 0 5.78 0 0 Z " fill="#05317E" transform="translate(6,7)"/>
<path d="M0 0 C2.97 0.495 2.97 0.495 6 1 C5.01 1.33 4.02 1.66 3 2 C3 3.65 3 5.3 3 7 C4.65 6.67 6.3 6.34 8 6 C8 6.66 8 7.32 8 8 C6.35 8 4.7 8 3 8 C3 9.65 3 11.3 3 13 C3.99 13.33 4.98 13.66 6 14 C4.02 14.33 2.04 14.66 0 15 C0 10.05 0 5.1 0 0 Z " fill="#EEF8FE" transform="translate(7,6)"/>
<path d="M0 0 C2.375 -0.125 2.375 -0.125 5 0 C5.66 0.66 6.32 1.32 7 2 C6.625 4.125 6.625 4.125 6 6 C6 5.01 6 4.02 6 3 C5.34 3 4.68 3 4 3 C3.67 3.99 3.34 4.98 3 6 C2.01 6 1.02 6 0 6 C0 4.02 0 2.04 0 0 Z " fill="#8B9CC0" transform="translate(10,6)"/>
</svg>
